name C:/MyDriveSym/Projects/mobilecap/Data\Session20210827_0002\mocap\ForceDataProcessed\walking1_forces.mot
datacolumns 19
datarows 12
range 0.32200000 0.32750000
endheader 
time	R_ground_force_vx	R_ground_force_vy	R_ground_force_vz	R_ground_force_px	R_ground_force_py	R_ground_force_pz	R_ground_torque_x	R_ground_torque_y	R_ground_torque_z	L_ground_force_vx	L_ground_force_vy	L_ground_force_vz	L_ground_force_px	L_ground_force_py	L_ground_force_pz	L_ground_torque_x	L_ground_torque_y	L_ground_torque_z	
          0.32200000	        -20.74506600	        506.26137900	        -13.24250400	          0.34003800	          0.00600000	         -0.17574400	          0.00000000	         -1.76740500	          0.00000000	          0.00000000	          0.00000000	          0.00000000	          0.77220100	          0.00000000	         -0.24861500	          0.00000000	          0.00000000	          0.00000000	
          0.32250000	        -20.58078700	        506.01275500	        -13.23059400	          0.34027700	          0.00600000	         -0.17574500	          0.00000000	         -1.78577100	          0.00000000	          0.00000000	          0.00000000	          0.00000000	          0.77220100	          0.00000000	         -0.24861500	          0.00000000	          0.00000000	          0.00000000	
          0.32300000	        -20.41630600	        505.77030000	        -13.21941400	          0.34051600	          0.00600000	         -0.17574600	          0.00000000	         -1.80417400	          0.00000000	          0.00000000	          0.00000000	          0.00000000	          0.77220100	          0.00000000	         -0.24861500	          0.00000000	          0.00000000	          0.00000000	
          0.32350000	        -20.25161700	        505.53405500	        -13.20896300	          0.34075400	          0.00600000	         -0.17574700	          0.00000000	         -1.82261300	          0.00000000	          0.00000000	          0.00000000	          0.00000000	          0.77220100	          0.00000000	         -0.24861500	          0.00000000	          0.00000000	          0.00000000	
          0.32400000	        -20.08671400	        505.30405900	        -13.19924200	          0.34099300	          0.00600000	         -0.17574800	          0.00000000	         -1.84108700	          0.00000000	          0.00000000	          0.00000000	          0.00000000	          0.77220100	          0.00000000	         -0.24861500	          0.00000000	          0.00000000	          0.00000000	
          0.32450000	        -19.92159300	        505.08035300	        -13.19025100	          0.34123200	          0.00600000	         -0.17574900	          0.00000000	         -1.85959600	          0.00000000	          0.00000000	          0.00000000	          0.00000000	          0.77220100	          0.00000000	         -0.24861500	          0.00000000	          0.00000000	          0.00000000	
          0.32500000	        -19.75624700	        504.86297800	        -13.18199000	          0.34147100	          0.00600000	         -0.17575000	          0.00000000	         -1.87814000	          0.00000000	          0.00000000	          0.00000000	          0.00000000	          0.77220100	          0.00000000	         -0.24861500	          0.00000000	          0.00000000	          0.00000000	
          0.32550000	        -19.59067100	        504.65197200	        -13.17445700	          0.34170900	          0.00600000	         -0.17575000	          0.00000000	         -1.89671700	          0.00000000	          0.00000000	          0.00000000	          0.00000000	          0.77220100	          0.00000000	         -0.24861500	          0.00000000	          0.00000000	          0.00000000	
          0.32600000	        -19.42486000	        504.44737300	        -13.16765400	          0.34194800	          0.00600000	         -0.17575100	          0.00000000	         -1.91532700	          0.00000000	          0.00000000	          0.00000000	          0.00000000	          0.77220100	          0.00000000	         -0.24861500	          0.00000000	          0.00000000	          0.00000000	
          0.32650000	        -19.25880800	        504.24922000	        -13.16158000	          0.34218700	          0.00600000	         -0.17575200	          0.00000000	         -1.93396900	          0.00000000	          0.00000000	          0.00000000	          0.00000000	          0.77220100	          0.00000000	         -0.24861500	          0.00000000	          0.00000000	          0.00000000	
          0.32700000	        -19.09251000	        504.05755100	        -13.15623400	          0.34242500	          0.00600000	         -0.17575300	          0.00000000	         -1.95264300	          0.00000000	          0.00000000	          0.00000000	          0.00000000	          0.77220100	          0.00000000	         -0.24861500	          0.00000000	          0.00000000	          0.00000000	
          0.32750000	        -18.92596100	        503.87240300	        -13.15161500	          0.34266300	          0.00600000	         -0.17575400	          0.00000000	         -1.97134800	          0.00000000	          0.00000000	          0.00000000	          0.00000000	          0.77220100	          0.00000000	         -0.24861500	          0.00000000	          0.00000000	          0.00000000	
